#!OML:ASF I:\Actors\actors\Patient Classification 2\Patient 1\Session 1\actor1.ASF
:FULLY-SPECIFIED
:DEGREES
797
root -0.737502 18.7084 5.52975 2.65996 -2.40005 -1.79477
lowerback 13.5079 0.295615 0.108963
upperback 3.35478 0.452162 1.06224
thorax -4.04691 0.221992 0.974348
lowerneck 1.46006 -0.989829 -1.11472
upperneck -2.09276 -1.29907 2.13518
head -0.861298 -0.664899 0.855219
rclavicle -6.83322e-015 -7.15625e-015
rhumerus 9.51063 14.1693 -29.8916
rradius 142.23
rwrist -54.1743
rhand 11.1512 -51.0663
rfingers 7.12502
rthumb 36.2173 -77.3291
lclavicle -6.83322e-015 -7.15625e-015
lhumerus -44.6951 -1.61742 86.0278
lradius 51.3017
lwrist 0.0105728
lhand -6.78971 -24.6007
lfingers 7.12502
lthumb 19.0731 4.48413
rfemur 0 0 0
rtibia 0
rfoot 0 0
rtoes 0
lfemur -7.98328 -1.477 -11.9298
ltibia 23.6537
lfoot -20.818 11.7723
ltoes -56.4084
798
root -0.738316 18.7087 5.53312 2.66335 -2.40743 -1.80933
lowerback 13.5529 0.272426 0.150885
upperback 3.29249 0.428207 1.05939
thorax -4.13609 0.210109 0.951563
lowerneck 1.54039 -0.96505 -1.18928
upperneck -2.20071 -1.2648 2.2202
head -0.90856 -0.648949 0.895493
rclavicle -3.40419e-015 1.67973e-014
rhumerus 9.69997 13.8658 -29.8602
rradius 142.27
rwrist -54.1824
rhand 11.1301 -51.3848
rfingers 7.12502
rthumb 36.1974 -77.6526
lclavicle -3.40419e-015 1.67973e-014
lhumerus -44.7906 -1.5591 86.0009
lradius 51.3091
lwrist -0.00861334
lhand -6.8476 -24.5842
lfingers 7.12502
lthumb 19.0174 4.50612
rfemur 0 0 0
rtibia 0
rfoot 0 0
rtoes 0
lfemur -7.97041 -1.49989 -11.917
ltibia 23.6465
lfoot -20.8602 11.8166
ltoes -56.419
799
root -0.738414 18.7082 5.53862 2.68658 -2.40641 -1.79419
lowerback 13.5265 0.247743 0.170127
upperback 3.26038 0.397538 1.04021
thorax -4.15467 0.194904 0.925797
lowerneck 1.55892 -0.950335 -1.17931
upperneck -2.34344 -1.2426 2.23422
head -0.956589 -0.638711 0.899279
rclavicle 1.01877e-015 -1.26228e-014
rhumerus 9.82399 13.653 -29.8814
rradius 142.29
rwrist -53.828
rhand 11.1242 -51.3726
rfingers 7.12502
rthumb 36.1918 -77.6417
lclavicle 1.01877e-015 -1.26228e-014
lhumerus -44.8615 -1.53636 85.9745
lradius 51.3815
lwrist 0.0785679
lhand -6.89033 -24.5785
lfingers 7.12502
lthumb 18.9763 4.51586
rfemur 0 0 0
rtibia 0
rfoot 0 0
rtoes 0
lfemur -7.97696 -1.52811 -11.9395
ltibia 23.6455
lfoot -20.8646 11.8595
ltoes -56.4013
800
root -0.740877 18.7082 5.54551 2.70911 -2.39753 -1.78945
lowerback 13.5027 0.230959 0.164853
upperback 3.23323 0.374494 1.03352
thorax -4.16981 0.183668 0.925685
lowerneck 1.51334 -0.951045 -1.1336
upperneck -2.45254 -1.2418 2.18324
head -0.983181 -0.638228 0.876159
rclavicle -7.86442e-015 6.80837e-015
rhumerus 9.89789 13.5012 -29.9
rradius 142.288
rwrist -53.3641
rhand 11.107 -50.8755
rfingers 7.12502
rthumb 36.1755 -77.1487
lclavicle -7.86442e-015 6.80837e-015
lhumerus -44.9142 -1.51502 85.9432
lradius 51.4432
lwrist 0.116133
lhand -6.83345 -24.5167
lfingers 7.12502
lthumb 19.031 4.57228
rfemur 0 0 0
rtibia 0
rfoot 0 0
rtoes 0
lfemur -7.97343 -1.53926 -11.9382
ltibia 23.6428
lfoot -20.8386 11.8747
ltoes -56.3985
801
root -0.744248 18.7088 5.5516 2.74918 -2.41029 -1.80459
lowerback 13.4817 0.23948 0.149509
upperback 3.19423 0.384402 1.04345
thorax -4.1996 0.188842 0.94311
lowerneck 1.46755 -0.961404 -1.08639
upperneck -2.53707 -1.25421 2.13497
head -1.00185 -0.644322 0.853601
rclavicle 5.35476e-015 -1.10325e-014
rhumerus 9.94743 13.2743 -29.9047
rradius 142.284
rwrist -53.1384
rhand 11.0572 -50.5359
rfingers 7.12502
rthumb 36.1284 -76.8207
lclavicle 5.35476e-015 -1.10325e-014
lhumerus -44.9277 -1.48802 85.9251
lradius 51.4181
lwrist 0.0709921
lhand -6.8121 -24.4913
lfingers 7.12502
lthumb 19.0515 4.59558
rfemur 0 0 0
rtibia 0
rfoot 0 0
rtoes 0
lfemur -7.98861 -1.52105 -11.9131
ltibia 23.6374
lfoot -20.8119 11.9192
ltoes -56.4612
802
root -0.745819 18.7087 5.556 2.76746 -2.41165 -1.82471
lowerback 13.4981 0.248373 0.165202
upperback 3.15699 0.399301 1.05253
thorax -4.24786 0.196216 0.941225
lowerneck 1.41157 -0.987473 -1.03568
upperneck -2.59591 -1.28815 2.07778
head -1.01047 -0.660959 0.82765
rclavicle -5.91384e-015 -6.4605e-015
rhumerus 10.019 13.0358 -29.8695
rradius 142.294
rwrist -52.996
rhand 10.9393 -50.4259
rfingers 7.12502
rthumb 36.0167 -76.7383
lclavicle -5.91384e-015 -6.4605e-015
lhumerus -44.9566 -1.48436 85.936
lradius 51.4017
lwrist 0.0465178
lhand -6.85364 -24.5187
lfingers 7.12502
lthumb 19.0116 4.57215
rfemur 0 0 0
rtibia 0
rfoot 0 0
rtoes 0
lfemur -7.99735 -1.5426 -11.8892
ltibia 23.6358
lfoot -20.8424 11.9448
ltoes -56.4489
803
root -0.747823 18.7087 5.56073 2.74104 -2.41559 -1.86186
lowerback 13.5675 0.250912 0.215961
upperback 3.12574 0.410551 1.05221
thorax -4.31838 0.20141 0.910189
lowerneck 1.35048 -1.01925 -1.0142
upperneck -2.65632 -1.32937 2.06085
head -1.01838 -0.681465 0.819205
rclavicle 5.42931e-015 -5.61567e-015
rhumerus 10.1078 12.8284 -29.8353
rradius 142.322
rwrist -52.7758
rhand 10.8091 -50.3258
rfingers 7.12502
rthumb 35.8933 -76.6685
lclavicle 5.42931e-015 -5.61567e-015
lhumerus -45.043 -1.51505 85.9494
lradius 51.4777
lwrist 0.0631512
lhand -6.85124 -24.4557
lfingers 7.12502
lthumb 19.0139 4.63492
rfemur 0 0 0
rtibia 0
rfoot 0 0
rtoes 0
lfemur -7.9545 -1.56379 -11.8415
ltibia 23.6336
lfoot -20.9138 11.8972
ltoes -56.334
804
root -0.750831 18.7091 5.56757 2.71452 -2.4634 -1.86609
lowerback 13.5886 0.265301 0.206191
upperback 3.11316 0.427927 1.04208
thorax -4.34335 0.210063 0.902096
lowerneck 1.33977 -1.01893 -1.00702
upperneck -2.80486 -1.32586 2.09074
head -1.06299 -0.680658 0.828416
rclavicle -4.03781e-015 -1.8487e-014
rhumerus 10.2076 12.5914 -29.8387
rradius 142.333
rwrist -52.6009
rhand 10.8558 -50.2658
rfingers 7.12502
rthumb 35.9376 -76.5976
lclavicle -4.03781e-015 -1.8487e-014
lhumerus -45.1114 -1.53638 85.9491
lradius 51.554
lwrist 0.100876
lhand -6.83069 -24.439
lfingers 7.12502
lthumb 19.0336 4.64972
rfemur 0 0 0
rtibia 0
rfoot 0 0
rtoes 0
lfemur -7.88745 -1.50478 -11.8318
ltibia 23.6288
lfoot -20.8963 11.8659
ltoes -56.3344
805
root -0.752615 18.7094 5.57309 2.71324 -2.51092 -1.81927
lowerback 13.5781 0.28237 0.153396
upperback 3.1044 0.441936 1.01941
thorax -4.34721 0.217433 0.905813
lowerneck 1.29293 -1.0239 -0.941823
upperneck -2.95646 -1.33008 2.03998
head -1.10283 -0.683101 0.802558
rclavicle -1.17034e-014 -5.46658e-016
rhumerus 10.2766 12.359 -29.8646
rradius 142.345
rwrist -52.4416
rhand 10.9497 -50.2899
rfingers 7.12502
rthumb 36.0266 -76.5999
lclavicle -1.17034e-014 -5.46658e-016
lhumerus -45.1 -1.52065 85.9376
lradius 51.5361
lwrist 0.0840043
lhand -6.82263 -24.5002
lfingers 7.12502
lthumb 19.0414 4.58776
rfemur 0 0 0
rtibia 0
rfoot 0 0
rtoes 0
lfemur -7.85801 -1.44822 -11.8858
ltibia 23.6325
lfoot -20.8251 11.8737
ltoes -56.3732
806
root -0.754163 18.7099 5.576 2.734 -2.53661 -1.81304
lowerback 13.6014 0.289106 0.170986
upperback 3.0705 0.452742 0.998642
thorax -4.39543 0.222633 0.872186
lowerneck 1.13675 -1.05108 -0.942017
upperneck -2.98641 -1.36578 2.0234
head -1.08499 -0.700076 0.796654
rclavicle 3.14328e-015 6.41081e-015
rhumerus 10.3031 12.119 -29.8763
rradius 142.381
rwrist -52.3459
rhand 10.9446 -50.3098
rfingers 7.12502
rthumb 36.0217 -76.621
lclavicle 3.14328e-015 6.41081e-015
lhumerus -45.0657 -1.47781 85.915
lradius 51.4654
lwrist -0.0358567
lhand -6.82977 -24.5146
lfingers 7.12502
lthumb 19.0345 4.57396
rfemur 0 0 0
rtibia 0
rfoot 0 0
rtoes 0
lfemur -7.87389 -1.40616 -11.8897
ltibia 23.6431
lfoot -20.802 11.8842
ltoes -56.3279
807
root -0.755256 18.7101 5.58038 2.75732 -2.55126 -1.84682
lowerback 13.6181 0.288434 0.236276
upperback 3.02371 0.461267 0.991589
thorax -4.4533 0.22626 0.826358
lowerneck 0.954568 -1.07499 -1.01919
upperneck -2.95048 -1.39761 2.0708
head -1.04164 -0.714754 0.822693
rclavicle 5.95112e-015 1.50082e-014
rhumerus 10.3842 11.8972 -29.8126
rradius 142.396
rwrist -52.3309
rhand 10.8485 -50.1431
rfingers 7.12502
rthumb 35.9306 -76.4766
lclavicle 5.95112e-015 1.50082e-014
lhumerus -45.0812 -1.44563 85.9096
lradius 51.4347
lwrist -0.116967
lhand -6.86442 -24.546
lfingers 7.12502
lthumb 19.0012 4.54589
rfemur 0 0 0
rtibia 0
rfoot 0 0
rtoes 0
lfemur -7.88582 -1.33507 -11.8491
ltibia 23.6523
lfoot -20.8216 11.8859
ltoes -56.3154
808
root -0.756347 18.7104 5.5861 2.76931 -2.53507 -1.85109
lowerback 13.6367 0.281403 0.251206
upperback 2.97037 0.454859 0.991163
thorax -4.5193 0.223091 0.818496
lowerneck 0.830212 -1.06302 -0.925873
upperneck -2.96275 -1.38196 1.96576
head -1.02535 -0.706044 0.773131
rclavicle 8.57259e-016 -1.07344e-014
rhumerus 10.5105 11.7623 -29.7271
rradius 142.365
rwrist -52.1426
rhand 10.7199 -49.9475
rfingers 7.12502
rthumb 35.8088 -76.3108
lclavicle 8.57259e-016 -1.07344e-014
lhumerus -45.1237 -1.41139 85.9211
lradius 51.4313
lwrist -0.115345
lhand -6.91349 -24.5672
lfingers 7.12502
lthumb 18.954 4.52928
rfemur 0 0 0
rtibia 0
rfoot 0 0
rtoes 0
lfemur -7.88298 -1.28881 -11.8414
ltibia 23.6626
lfoot -20.8234 11.8696
ltoes -56.3626
809
root -0.758961 18.7121 5.59058 2.77799 -2.49975 -1.85183
lowerback 13.6777 0.275698 0.237044
upperback 2.91926 0.446823 1.00091
thorax -4.59556 0.219493 0.83799
lowerneck 0.728599 -1.03525 -0.798077
upperneck -3.0477 -1.34429 1.85041
head -1.03615 -0.686996 0.715313
rclavicle 1.56543e-015 1.3418e-015
rhumerus 10.567 11.6244 -29.6902
rradius 142.316
rwrist -51.875
rhand 10.6891 -49.9152
rfingers 7.12502
rthumb 35.7797 -76.2855
lclavicle 1.56543e-015 1.3418e-015
lhumerus -45.1367 -1.34618 85.9299
lradius 51.4118
lwrist -0.144123
lhand -6.91561 -24.5696
lfingers 7.12502
lthumb 18.952 4.52705
rfemur 0 0 0
rtibia 0
rfoot 0 0
rtoes 0
lfemur -7.8901 -1.28719 -11.832
ltibia 23.676
lfoot -20.7907 11.8758
ltoes -56.4643
810
root -0.761288 18.7134 5.59442 2.78166 -2.47749 -1.88188
lowerback 13.7046 0.270244 0.251076
upperback 2.90186 0.443185 1.02222
thorax -4.62858 0.217678 0.852979
lowerneck 0.61861 -1.04084 -0.774933
upperneck -3.21267 -1.34926 1.8397
head -1.06904 -0.689725 0.708516
rclavicle -8.31168e-015 2.5842e-015
rhumerus 10.6136 11.4243 -29.6756
rradius 142.282
rwrist -51.774
rhand 10.757 -49.9704
rfingers 7.12502
rthumb 35.8439 -76.3251
lclavicle -8.31168e-015 2.5842e-015
lhumerus -45.0793 -1.23586 85.9242
lradius 51.3499
lwrist -0.214928
lhand -6.84564 -24.629
lfingers 7.12502
lthumb 19.0193 4.46107
rfemur 0 0 0
rtibia 0
rfoot 0 0
rtoes 0
lfemur -7.89022 -1.35521 -11.7973
ltibia 23.6878
lfoot -20.8096 11.9515
ltoes -56.5596
811
root -0.763124 18.7148 5.59821 2.79906 -2.46053 -1.88604
lowerback 13.6978 0.260455 0.239331
upperback 2.89701 0.429279 1.03457
thorax -4.62998 0.211046 0.875013
lowerneck 0.548595 -1.04126 -0.674874
upperneck -3.4494 -1.34774 1.75275
head -1.13201 -0.689587 0.666114
rclavicle -6.39838e-015 9.93923e-017
rhumerus 10.7229 11.2128 -29.6445
rradius 142.288
rwrist -51.8671
rhand 10.7744 -49.9959
rfingers 7.12502
rthumb 35.8604 -76.3465
lclavicle -6.39838e-015 9.93923e-017
lhumerus -44.9962 -1.12301 85.9143
lradius 51.2811
lwrist -0.215314
lhand -6.79289 -24.7263
lfingers 7.12502
lthumb 19.07 4.35881
rfemur 0 0 0
rtibia 0
rfoot 0 0
rtoes 0
lfemur -7.92175 -1.47027 -11.7928
ltibia 23.7451
lfoot -20.8861 12.022
ltoes -56.5509
812
root -0.764957 18.7169 5.60262 2.85172 -2.4571 -1.8411
lowerback 13.6523 0.256962 0.188896
upperback 2.85749 0.417075 1.02353
thorax -4.64675 0.205733 0.894141
lowerneck 0.511751 -1.02809 -0.609271
upperneck -3.668 -1.32823 1.69647
head -1.19507 -0.68055 0.638919
rclavicle -2.62147e-015 3.97569e-015
rhumerus 10.7834 11.0726 -29.6193
rradius 142.34
rwrist -51.9172
rhand 10.7106 -49.9388
rfingers 7.12502
rthumb 35.8 -76.3042
lclavicle -2.62147e-015 3.97569e-015
lhumerus -44.9825 -1.07231 85.9093
lradius 51.273
lwrist -0.156695
lhand -6.74548 -24.7581
lfingers 7.12502
lthumb 19.1156 4.32249
rfemur 0 0 0
rtibia 0
rfoot 0 0
rtoes 0
lfemur -8.03352 -1.53343 -11.8381
ltibia 23.8939
lfoot -20.9833 12.0409
ltoes -56.4993
